<?xml version="1.0" encoding="utf-8"?>
<!-- Designed by Vexels.com - 2016 All Rights Reserved - https://vexels.com/terms-and-conditions/  -->

<svg version="1.1" id="Layer_1" xmlns="http://www.w3.org/2000/svg" xmlns:xlink="http://www.w3.org/1999/xlink" x="0px" y="0px"
	 width="1200px" height="1200px" viewBox="0 0 1200 1200" enable-background="new 0 0 1200 1200" xml:space="preserve">
<g>
	<path fill="#575756" d="M517.521,256.095l-0.483-0.033c-0.519-36.029-19.569-52.633-19.569-52.633L343.005,50l-94.051,93.945
		l114.011,113.543c0,0,21.441,20.567,21.441,58.951c0,1.214,0.073,2.252,0.215,3.324v560.479c-0.142,0.998-0.215,2.106-0.215,3.283
		c0,38.42-21.441,58.987-21.441,58.987l-114.011,113.51L343.005,1150L497.47,996.607c0,0,17.068-15.141,19.155-47.492h0.896V256.095
		z"/>
	<path fill="#575756" d="M682.409,256.095l0.483-0.033c0.483-36.029,19.532-52.633,19.532-52.633L856.962,50l94.084,93.945
		L837.002,257.488c0,0-21.514,20.567-21.514,58.951c0,1.214-0.073,2.252-0.161,3.324v560.479c0.088,0.998,0.161,2.106,0.161,3.283
		c0,38.42,21.514,58.987,21.514,58.987l114.044,113.51L856.962,1150L702.424,996.607c0,0-16.962-15.141-19.174-47.492h-0.841
		V256.095z"/>
</g>
</svg>
